<svg version="1.2" xmlns="http://www.w3.org/2000/svg" viewBox="0 0 1000 1000" width="1000" height="1000">
	<title>1127-ai</title>
	<defs>
		<linearGradient id="g1" x1="-6.2" y1="886.9" x2="-13.2" y2="838.1" gradientUnits="userSpaceOnUse">
			<stop offset="0" stop-color="#ffffff"/>
			<stop offset="1" stop-color="#2589bc"/>
		</linearGradient>
	</defs>
	<style>
		.s0 { fill: #08296c } 
		.s1 { fill: #005aa9 } 
		.s2 { fill: #8dd7f7 } 
		.s3 { fill: #00bcf1 } 
		.s4 { mix-blend-mode: multiply;fill: url(#g1) } 
	</style>
	<g id="Background" style="opacity: .3">
		<g id="&lt;Group&gt;">
			<g id="&lt;Group&gt;">
				<path id="&lt;Path&gt;" class="s0" d="m841.2 949.1c72.7-13.3 130.1-37.3 158.8-51v101.9h-1000v-135c105.6-93.8 216.7-90.6 286.2-74.4 104.8 24.5 191 94.9 289.3 135.9 83.8 35 177.2 38.7 265.7 22.6z"/>
				<path id="&lt;Path&gt;" class="s1" d="m1000 846.4v51.7c-28.7 13.7-86.1 37.7-158.8 51-28.8 5.2-58.1 8.4-87.4 9-2-0.3-4-0.4-6-0.4-45-0.1-89-9.8-131.9-27.3-35.4-14.5-70.5-32-103.6-51.3-71.4-41.5-139.4-89.5-218.7-115.7-60.8-20.1-155.9-32.8-256.9 25.5 94-64.2 188-60 249.5-45.7 81.3 19 153.3 60.7 228.2 95.7 76.6 35.8 158.5 58.7 243.5 58.9 81 0.2 242.1-51.4 242.1-51.4z"/>
				<path id="&lt;Path&gt;" class="s2" d="m1000 727.4v91.6c0 0-144.3 57-225.3 59.6-85 2.8-167.6-17.2-245.4-50.3-76.1-32.4-149.5-71.5-231.5-87.6-18.5-3.6-39.8-6.2-63.1-6.4 20.2-1.8 39.1-1.6 55.8-0.3 83.2 6.2 160.8 36.3 240.2 59.4 81.2 23.6 165.6 33.7 249.6 20.9 80.2-12.3 219.7-86.9 219.7-86.9z"/>
				<path id="&lt;Path&gt;" class="s3" d="m1000 754.7v91.7c0 0-112 51.4-242.1 51.4-85 0-166.9-23.1-243.5-58.9-74.9-35-146.9-76.7-228.2-95.7-18.4-4.2-39.6-7.6-62.9-8.5 20.3-1.2 39.1-0.3 55.8 1.5 83 9.2 159.5 42 237.9 67.9 80.4 26.5 164.4 39.5 248.8 29.6 80.5-9.4 234.2-79 234.2-79z"/>
			</g>
			<g id="Shadow 1 ">
				<path id="&lt;Path&gt;" class="s4" d="m5.3 903c45.3-44 175.6-145.5 391.2-54.6 0 0-11.4 120.9-17.3 107.9-189.2-52.3-380.1-47.2-373.9-53.3z"/>
			</g>
		</g>
		<g id="&lt;Group&gt;">
		</g>
	</g>
</svg>